<svg width="3400" height="1380" viewBox="160 250 3400 1380" fill="none" xmlns="http://www.w3.org/2000/svg">
    <rect width="3694" height="2103" id="repeat" fill="#666" opacity="0" display="none">
        <set attributeName="display" to="inline" begin="animateR.end+0.5s" end="repeat.click;indefinite" />
    </rect>
    <!-- O -->
    <path stroke-dasharray="520 520" stroke-dashoffset="520" d="M905.5 952C907.5 947 909 945.5 909 936C909 909.5 864.5 911 858 911C781.5 911 712.5 957.5 712.5 978.5C712.5 1008.5 773 1012.5 774 1012.5C782 1012.5 839.5 1014.5 839.5 1014.5C839.5 1014.5 828 1014.5 807 1014.5C712.5 1014.5 562.892 1089.04 560 1197C560 1237 587 1326.5 795 1326.5C1044 1326.5 1361 1226 1422.5 1174.5C1425 1172.41 1425 1169 1425 1169" stroke="#083D77" stroke-width="10" stroke-linecap="round" stroke-linejoin="round">
        <animate id="animateO" attributeName="stroke-dashoffset" from="520" to="0" begin="1s;repeat.click+0.25s" dur="0.75s" keyTimes="0;1" calcMode="spline" keySplines=".12,0,.39,0;" />
        <set attributeName="stroke-dashoffset" to="0" begin="animateO.end" end="repeat.click;indefinite" />
    </path>
    
    <!-- n -->
    <path stroke-dasharray="380 380" stroke-dashoffset="380" d="M1425 1169C1425 1169 1430 1165 1435 1165C1445 1165 1455 1175 1455 1185C1455 1195 1445 1205 1435 1205C1425 1205 1415 1195 1415 1185" stroke="#083D77" stroke-width="10" stroke-linecap="round" stroke-linejoin="round">
        <animate id="animateN" attributeName="stroke-dashoffset" from="380" to="0" begin="animateO.end" dur="0.4s" keyTimes="0;1" calcMode="spline" keySplines=".12,0,.39,0;" />
        <set attributeName="stroke-dashoffset" to="0" begin="animateN.end" end="repeat.click;indefinite" />
    </path>
    
    <!-- k -->
    <path stroke-dasharray="420 420" stroke-dashoffset="420" d="M1455 1185C1455 1185 1460 1180 1465 1180C1475 1180 1485 1190 1485 1200M1465 1190C1465 1190 1480 1205 1485 1210" stroke="#083D77" stroke-width="10" stroke-linecap="round" stroke-linejoin="round">
        <animate id="animateK" attributeName="stroke-dashoffset" from="420" to="0" begin="animateN.end" dur="0.45s" keyTimes="0;1" calcMode="spline" keySplines=".12,0,.39,0;" />
        <set attributeName="stroke-dashoffset" to="0" begin="animateK.end" end="repeat.click;indefinite" />
    </path>
    
    <!-- a -->
    <path stroke-dasharray="350 350" stroke-dashoffset="350" d="M1485 1210C1485 1210 1490 1205 1495 1205C1505 1205 1515 1215 1515 1225C1515 1235 1505 1245 1495 1245C1485 1245 1475 1235 1475 1225" stroke="#083D77" stroke-width="10" stroke-linecap="round" stroke-linejoin="round">
        <animate id="animateA" attributeName="stroke-dashoffset" from="350" to="0" begin="animateK.end" dur="0.35s" keyTimes="0;1" calcMode="spline" keySplines=".12,0,.39,0;" />
        <set attributeName="stroke-dashoffset" to="0" begin="animateA.end" end="repeat.click;indefinite" />
    </path>
    
    <!-- r -->
    <path stroke-dasharray="280 280" stroke-dashoffset="280" d="M1515 1225C1515 1225 1520 1220 1525 1220C1535 1220 1545 1230 1545 1240" stroke="#083D77" stroke-width="10" stroke-linecap="round" stroke-linejoin="round">
        <animate id="animateR" attributeName="stroke-dashoffset" from="280" to="0" begin="animateA.end" dur="0.3s" keyTimes="0;1" calcMode="spline" keySplines=".12,0,.39,0;" />
        <set attributeName="stroke-dashoffset" to="0" begin="animateR.end" end="repeat.click;indefinite" />
    </path>
    
    <!-- Underline -->
    <path stroke-dasharray="300 300" stroke-dashoffset="300" d="M905 1250L1545 1250" stroke="#38D1C4" stroke-width="13" stroke-linecap="round">
        <animate id="animateUnderline" attributeName="stroke-dashoffset" from="300" to="0" begin="animateR.end" dur="0.3s" keyTimes="0;1" calcMode="spline" keySplines=".12,0,.39,0;" />
        <set attributeName="stroke-dashoffset" to="0" begin="animateUnderline.end" end="repeat.click;indefinite" />
    </path>
    
    <!-- K (Kandar) -->
    <path stroke-dasharray="450 450" stroke-dashoffset="450" d="M905 1300L905 1400M905 1350L925 1330M905 1350L925 1370" stroke="#083D77" stroke-width="10" stroke-linecap="round" stroke-linejoin="round">
        <animate id="animateK2" attributeName="stroke-dashoffset" from="450" to="0" begin="animateUnderline.end" dur="0.45s" keyTimes="0;1" calcMode="spline" keySplines=".12,0,.39,0;" />
        <set attributeName="stroke-dashoffset" to="0" begin="animateK2.end" end="repeat.click;indefinite" />
    </path>
    
    <!-- a (Kandar) -->
    <path stroke-dasharray="350 350" stroke-dashoffset="350" d="M925 1370C925 1370 930 1365 935 1365C945 1365 955 1375 955 1385C955 1395 945 1405 935 1405C925 1405 915 1395 915 1385" stroke="#083D77" stroke-width="10" stroke-linecap="round" stroke-linejoin="round">
        <animate id="animateA2" attributeName="stroke-dashoffset" from="350" to="0" begin="animateK2.end" dur="0.35s" keyTimes="0;1" calcMode="spline" keySplines=".12,0,.39,0;" />
        <set attributeName="stroke-dashoffset" to="0" begin="animateA2.end" end="repeat.click;indefinite" />
    </path>
    
    <!-- n (Kandar) -->
    <path stroke-dasharray="380 380" stroke-dashoffset="380" d="M955 1385C955 1385 960 1380 965 1380C975 1380 985 1390 985 1400C985 1410 975 1420 965 1420C955 1420 945 1410 945 1400" stroke="#083D77" stroke-width="10" stroke-linecap="round" stroke-linejoin="round">
        <animate id="animateN2" attributeName="stroke-dashoffset" from="380" to="0" begin="animateA2.end" dur="0.4s" keyTimes="0;1" calcMode="spline" keySplines=".12,0,.39,0;" />
        <set attributeName="stroke-dashoffset" to="0" begin="animateN2.end" end="repeat.click;indefinite" />
    </path>
    
    <!-- d (Kandar) -->
    <path stroke-dasharray="420 420" stroke-dashoffset="420" d="M985 1400C985 1400 990 1395 995 1395C1005 1395 1015 1405 1015 1415C1015 1425 1005 1435 995 1435C985 1435 975 1425 975 1415" stroke="#083D77" stroke-width="10" stroke-linecap="round" stroke-linejoin="round">
        <animate id="animateD" attributeName="stroke-dashoffset" from="420" to="0" begin="animateN2.end" dur="0.45s" keyTimes="0;1" calcMode="spline" keySplines=".12,0,.39,0;" />
        <set attributeName="stroke-dashoffset" to="0" begin="animateD.end" end="repeat.click;indefinite" />
    </path>
    
    <!-- a (Kandar) -->
    <path stroke-dasharray="350 350" stroke-dashoffset="350" d="M1015 1415C1015 1415 1020 1410 1025 1410C1035 1410 1045 1420 1045 1430C1045 1440 1035 1450 1025 1450C1015 1450 1005 1440 1005 1430" stroke="#083D77" stroke-width="10" stroke-linecap="round" stroke-linejoin="round">
        <animate id="animateA3" attributeName="stroke-dashoffset" from="350" to="0" begin="animateD.end" dur="0.35s" keyTimes="0;1" calcMode="spline" keySplines=".12,0,.39,0;" />
        <set attributeName="stroke-dashoffset" to="0" begin="animateA3.end" end="repeat.click;indefinite" />
    </path>
    
    <!-- r (Kandar) -->
    <path stroke-dasharray="280 280" stroke-dashoffset="280" d="M1045 1430C1045 1430 1050 1425 1055 1425C1065 1425 1075 1435 1075 1445" stroke="#083D77" stroke-width="10" stroke-linecap="round" stroke-linejoin="round">
        <animate id="animateR2" attributeName="stroke-dashoffset" from="280" to="0" begin="animateA3.end" dur="0.3s" keyTimes="0;1" calcMode="spline" keySplines=".12,0,.39,0;" />
        <set attributeName="stroke-dashoffset" to="0" begin="animateR2.end" end="repeat.click;indefinite" />
    </path>
</svg>